<svg width="266" height="140" viewBox="0 0 266 140" fill="none" xmlns="http://www.w3.org/2000/svg">
<path fill-rule="evenodd" clip-rule="evenodd" d="M36.2547 0.613763C12.8768 5.84511 -3.04936 28.7341 0.492814 52.0114C1.4985 58.6218 3.26935 63.1821 9.11803 74.2227C13.7248 82.9195 19.3498 93.6563 35.9347 125.411C39.3815 132.011 42.7876 138.004 43.5034 138.731C45.0884 140.338 46.7941 140.42 48.4701 138.971C49.1566 138.377 52.1842 133.139 55.1975 127.331C58.2112 121.523 64.0579 110.238 68.1904 102.252C72.3228 94.2663 75.9263 87.7323 76.198 87.7323C76.4702 87.7323 79.2313 90.245 82.3351 93.316L87.9783 98.8991L90.2488 98.6428C92.069 98.4374 92.8309 98.0457 94.0929 96.6663C95.4483 95.1841 95.6663 94.6014 95.6663 92.4563V89.9666L88.9586 83.1893C85.2693 79.4612 82.2508 76.1791 82.2508 75.8954C82.2508 75.6117 83.8559 72.057 85.8179 67.9963C90.9258 57.4237 91.5928 54.78 91.5521 45.2537C91.5228 38.3496 91.3896 37.1482 90.2359 33.3559C88.8038 28.6506 86.3794 23.5498 83.6858 19.5746C77.9094 11.0515 68.5751 4.34132 58.2945 1.32126C53.5919 -0.0596548 41.0633 -0.461881 36.2547 0.613763ZM55.8884 14.2971C64.9189 17.359 71.4781 23.0343 75.5795 31.3342C86.2093 52.8466 70.2688 78.1326 46.0768 78.1326C33.4265 78.1326 22.1349 71.3884 16.7174 60.5964C14.0458 55.2743 13.0402 51.1023 13.0761 45.4937C13.1379 35.9358 16.3557 28.4058 23.1435 21.9356C27.7196 17.5735 32.5914 14.9725 38.8899 13.5282C43.1417 12.5534 51.9159 12.9503 55.8884 14.2971ZM141.242 40.234C138.652 40.8163 137.111 42.7074 137.111 45.3041C137.111 47.1693 137.342 47.6992 138.676 48.893C139.983 50.0632 140.653 50.2931 142.748 50.2916C146.086 50.2892 148.133 49.0369 148.88 46.5406C149.329 45.0368 149.311 44.3936 148.786 43.3208C147.521 40.7332 144.507 39.5001 141.242 40.234ZM233.175 40.0469C230.261 41.0087 228.863 42.7823 228.863 45.5177C228.863 46.6073 229.334 47.5015 230.549 48.7187C232.179 50.3511 232.333 50.4006 235.172 50.1947C237.738 50.0089 238.281 49.7886 239.475 48.4504C242.089 45.5196 240.867 41.2795 237.107 40.2331C235.217 39.7075 234.331 39.6657 233.175 40.0469ZM212.666 49.8145C212.746 53.2469 212.678 56.0548 212.514 56.0543C212.349 56.0538 211.174 55.4711 209.903 54.7593C207.017 53.1432 202.518 52.9479 199.051 54.288C196.045 55.45 192.701 59.1704 191.736 62.4271C189.549 69.8054 192.19 77.3354 198.139 80.6833C200.337 81.9207 201.213 82.1319 204.128 82.1285C207.624 82.1242 210.653 81.0725 212.06 79.3729C212.903 78.3558 213.453 78.8056 213.171 80.281L212.94 81.4925H217.548H222.155V62.5331V43.5738H217.337H212.52L212.666 49.8145ZM104.291 63.7331V81.4925H109.321H114.352V75.4927V69.4929H122.497H130.642V65.653V61.8132H122.497H114.352V57.7333V53.6534H123.456H132.559V49.8136V45.9737H118.425H104.291V63.7331ZM248.507 51.0135V54.6134H246.591H244.674V58.4533V62.2931H246.535H248.396L248.597 68.6529C248.803 75.1428 249.255 76.9072 251.32 79.2635C253.448 81.6922 258.669 82.8984 263.08 81.9807C264.543 81.6768 265.843 81.2597 265.97 81.0538C266.097 80.8479 265.808 79.2966 265.328 77.6061C264.549 74.8668 264.33 74.5438 263.309 74.6331C260.854 74.8481 259.201 74.2918 258.642 73.0621C258.339 72.3944 258.09 69.6979 258.09 67.0704V62.2931H261.444H264.798V58.7153V55.1371L261.564 54.9955L258.329 54.8534L258.19 51.1335L258.05 47.4136H253.279H248.507V51.0135ZM170.268 53.831C169.004 54.1857 167.375 55.0473 166.648 55.7447C164.955 57.3704 164.753 57.3421 164.571 55.4534C164.488 54.5952 164.259 53.9477 164.062 54.0134C163.864 54.0792 161.87 54.1334 159.63 54.1334H155.557V67.813V81.4925H160.348H165.14V73.5953C165.14 68.9395 165.353 65.2292 165.659 64.5548C166.708 62.25 170.905 61.0173 173.311 62.3075C175.306 63.3765 175.68 65.1543 175.68 73.5488V81.4925H180.506H185.331L185.177 71.2928C185.013 60.3963 184.831 59.4929 182.212 56.6068C179.709 53.8469 174.511 52.6392 170.268 53.831ZM138.203 67.8125L138.337 81.4925H142.875H147.412V67.813V54.1334L142.74 54.1329H138.069L138.203 67.8125ZM229.821 67.813V81.4925H234.613H239.404V67.813V54.1334H234.613H229.821V67.813ZM209.906 62.2672C211.829 63.5378 212.536 64.9969 212.556 67.7391C212.585 71.769 210.208 74.2927 206.383 74.2927C204.822 74.2927 204.055 73.9635 202.682 72.703C201.226 71.3663 200.912 70.7183 200.712 68.6289C200.569 67.14 200.723 65.5417 201.095 64.6417C202.359 61.5852 206.986 60.3387 209.906 62.2672Z" fill="#003898"/>
</svg>
